<svg viewBox="0 0 330 200" xmlns="http://www.w3.org/2000/svg"><g><g><g><g><g><line x1="66.71875" y1="177.55200004577637" x2="61.71875" y2="177.55200004577637" style="visibility: inherit;" fill="rgb(0, 0, 0)" stroke="rgb(204, 204, 204)" stroke-width="1px"></line><line x1="66.71875" y1="164.8697143282209" x2="61.71875" y2="164.8697143282209" style="visibility: inherit;" fill="rgb(0, 0, 0)" stroke="rgb(204, 204, 204)" stroke-width="1px"></line><line x1="66.71875" y1="152.18742861066548" x2="61.71875" y2="152.18742861066548" style="visibility: inherit;" fill="rgb(0, 0, 0)" stroke="rgb(204, 204, 204)" stroke-width="1px"></line><line x1="66.71875" y1="139.50514289311002" x2="61.71875" y2="139.50514289311002" style="visibility: inherit;" fill="rgb(0, 0, 0)" stroke="rgb(204, 204, 204)" stroke-width="1px"></line><line x1="66.71875" y1="126.82285717555455" x2="61.71875" y2="126.82285717555455" style="visibility: inherit;" fill="rgb(0, 0, 0)" stroke="rgb(204, 204, 204)" stroke-width="1px"></line><line x1="66.71875" y1="114.14057145799909" x2="61.71875" y2="114.14057145799909" style="visibility: inherit;" fill="rgb(0, 0, 0)" stroke="rgb(204, 204, 204)" stroke-width="1px"></line><line x1="66.71875" y1="101.45828574044367" x2="61.71875" y2="101.45828574044367" style="visibility: inherit;" fill="rgb(0, 0, 0)" stroke="rgb(204, 204, 204)" stroke-width="1px"></line><line x1="66.71875" y1="88.7760000228882" x2="61.71875" y2="88.7760000228882" style="visibility: inherit;" fill="rgb(0, 0, 0)" stroke="rgb(204, 204, 204)" stroke-width="1px"></line><line x1="66.71875" y1="76.09371430533274" x2="61.71875" y2="76.09371430533274" style="visibility: inherit;" fill="rgb(0, 0, 0)" stroke="rgb(204, 204, 204)" stroke-width="1px"></line><line x1="66.71875" y1="63.41142858777729" x2="61.71875" y2="63.41142858777729" style="visibility: inherit;" fill="rgb(0, 0, 0)" stroke="rgb(204, 204, 204)" stroke-width="1px"></line><line x1="66.71875" y1="50.72914287022186" x2="61.71875" y2="50.72914287022186" style="visibility: inherit;" fill="rgb(0, 0, 0)" stroke="rgb(204, 204, 204)" stroke-width="1px"></line><line x1="66.71875" y1="38.046857152666384" x2="61.71875" y2="38.046857152666384" style="visibility: inherit;" fill="rgb(0, 0, 0)" stroke="rgb(204, 204, 204)" stroke-width="1px"></line><line x1="66.71875" y1="25.36457143511094" x2="61.71875" y2="25.36457143511094" style="visibility: inherit;" fill="rgb(0, 0, 0)" stroke="rgb(204, 204, 204)" stroke-width="1px"></line><line x1="66.71875" y1="12.68228571755547" x2="61.71875" y2="12.68228571755547" style="visibility: inherit;" fill="rgb(0, 0, 0)" stroke="rgb(204, 204, 204)" stroke-width="1px"></line><line x1="66.71875" y1="0" x2="61.71875" y2="0" style="visibility: inherit;" fill="rgb(0, 0, 0)" stroke="rgb(204, 204, 204)" stroke-width="1px"></line></g><g transform="translate(56.71875, 0)"><text x="0" y="177.55200004577637" dx="0em" dy="0.3em" style="text-anchor: end; visibility: hidden; font-family: Roboto, sans-serif; font-size: 12px; font-weight: 200;" fill="rgb(33, 33, 33)" stroke="none" stroke-width="1px">0.04</text><text x="0" y="164.8697143282209" dx="0em" dy="0.3em" style="text-anchor: end; visibility: inherit; font-family: Roboto, sans-serif; font-size: 12px; font-weight: 200;" fill="rgb(33, 33, 33)" stroke="none" stroke-width="1px">0.042</text><text x="0" y="152.18742861066548" dx="0em" dy="0.3em" style="text-anchor: end; visibility: hidden; font-family: Roboto, sans-serif; font-size: 12px; font-weight: 200;" fill="rgb(33, 33, 33)" stroke="none" stroke-width="1px">0.044</text><text x="0" y="139.50514289311002" dx="0em" dy="0.3em" style="text-anchor: end; visibility: inherit; font-family: Roboto, sans-serif; font-size: 12px; font-weight: 200;" fill="rgb(33, 33, 33)" stroke="none" stroke-width="1px">0.046</text><text x="0" y="126.82285717555455" dx="0em" dy="0.3em" style="text-anchor: end; visibility: hidden; font-family: Roboto, sans-serif; font-size: 12px; font-weight: 200;" fill="rgb(33, 33, 33)" stroke="none" stroke-width="1px">0.048</text><text x="0" y="114.14057145799909" dx="0em" dy="0.3em" style="text-anchor: end; visibility: inherit; font-family: Roboto, sans-serif; font-size: 12px; font-weight: 200;" fill="rgb(33, 33, 33)" stroke="none" stroke-width="1px">0.05</text><text x="0" y="101.45828574044367" dx="0em" dy="0.3em" style="text-anchor: end; visibility: hidden; font-family: Roboto, sans-serif; font-size: 12px; font-weight: 200;" fill="rgb(33, 33, 33)" stroke="none" stroke-width="1px">0.052</text><text x="0" y="88.7760000228882" dx="0em" dy="0.3em" style="text-anchor: end; visibility: inherit; font-family: Roboto, sans-serif; font-size: 12px; font-weight: 200;" fill="rgb(33, 33, 33)" stroke="none" stroke-width="1px">0.054</text><text x="0" y="76.09371430533274" dx="0em" dy="0.3em" style="text-anchor: end; visibility: hidden; font-family: Roboto, sans-serif; font-size: 12px; font-weight: 200;" fill="rgb(33, 33, 33)" stroke="none" stroke-width="1px">0.056</text><text x="0" y="63.41142858777729" dx="0em" dy="0.3em" style="text-anchor: end; visibility: inherit; font-family: Roboto, sans-serif; font-size: 12px; font-weight: 200;" fill="rgb(33, 33, 33)" stroke="none" stroke-width="1px">0.058</text><text x="0" y="50.72914287022186" dx="0em" dy="0.3em" style="text-anchor: end; visibility: hidden; font-family: Roboto, sans-serif; font-size: 12px; font-weight: 200;" fill="rgb(33, 33, 33)" stroke="none" stroke-width="1px">0.06</text><text x="0" y="38.046857152666384" dx="0em" dy="0.3em" style="text-anchor: end; visibility: inherit; font-family: Roboto, sans-serif; font-size: 12px; font-weight: 200;" fill="rgb(33, 33, 33)" stroke="none" stroke-width="1px">0.062</text><text x="0" y="25.36457143511094" dx="0em" dy="0.3em" style="text-anchor: end; visibility: hidden; font-family: Roboto, sans-serif; font-size: 12px; font-weight: 200;" fill="rgb(33, 33, 33)" stroke="none" stroke-width="1px">0.064</text><text x="0" y="12.68228571755547" dx="0em" dy="0.3em" style="text-anchor: end; visibility: inherit; font-family: Roboto, sans-serif; font-size: 12px; font-weight: 200;" fill="rgb(33, 33, 33)" stroke="none" stroke-width="1px">0.066</text><text x="0" y="0" dx="0em" dy="0.3em" style="text-anchor: end; visibility: hidden; font-family: Roboto, sans-serif; font-size: 12px; font-weight: 200;" fill="rgb(33, 33, 33)" stroke="none" stroke-width="1px">0.068</text></g><line x1="66.71875" y1="0" x2="66.71875" y2="177.55200004577637" fill="rgb(0, 0, 0)" stroke="rgb(204, 204, 204)" stroke-width="1px"></line></g></g><g transform="translate(66, 0)" clip-path="url(#clip_0)"><clipPath id="clip_0"><rect width="263" height="177"></rect></clipPath><g><g><g><line x1="0" y1="0" x2="0" y2="177.55200004577637" fill="rgb(0, 0, 0)" stroke="rgb(66, 66, 66)" stroke-width="1px" opacity="0.25"></line><line x1="29.25347222222222" y1="0" x2="29.25347222222222" y2="177.55200004577637" fill="rgb(0, 0, 0)" stroke="rgb(66, 66, 66)" stroke-width="1px" opacity="0.25"></line><line x1="58.50694444444444" y1="0" x2="58.50694444444444" y2="177.55200004577637" fill="rgb(0, 0, 0)" stroke="rgb(66, 66, 66)" stroke-width="1px" opacity="0.25"></line><line x1="87.76041666666666" y1="0" x2="87.76041666666666" y2="177.55200004577637" fill="rgb(0, 0, 0)" stroke="rgb(66, 66, 66)" stroke-width="1px" opacity="0.25"></line><line x1="117.01388888888889" y1="0" x2="117.01388888888889" y2="177.55200004577637" fill="rgb(0, 0, 0)" stroke="rgb(66, 66, 66)" stroke-width="1px" opacity="0.25"></line><line x1="146.26736111111111" y1="0" x2="146.26736111111111" y2="177.55200004577637" fill="rgb(0, 0, 0)" stroke="rgb(66, 66, 66)" stroke-width="1px" opacity="0.25"></line><line x1="175.52083333333331" y1="0" x2="175.52083333333331" y2="177.55200004577637" fill="rgb(0, 0, 0)" stroke="rgb(66, 66, 66)" stroke-width="1px" opacity="0.25"></line><line x1="204.77430555555557" y1="0" x2="204.77430555555557" y2="177.55200004577637" fill="rgb(0, 0, 0)" stroke="rgb(66, 66, 66)" stroke-width="1px" opacity="0.25"></line><line x1="234.02777777777777" y1="0" x2="234.02777777777777" y2="177.55200004577637" fill="rgb(0, 0, 0)" stroke="rgb(66, 66, 66)" stroke-width="1px" opacity="0.25"></line><line x1="263.28125" y1="0" x2="263.28125" y2="177.55200004577637" fill="rgb(0, 0, 0)" stroke="rgb(66, 66, 66)" stroke-width="1px" opacity="0.25"></line></g><g><line x1="0" y1="177.55200004577637" x2="263.28125" y2="177.55200004577637" fill="rgb(0, 0, 0)" stroke="rgb(66, 66, 66)" stroke-width="1px" opacity="0.25"></line><line x1="0" y1="164.8697143282209" x2="263.28125" y2="164.8697143282209" fill="rgb(0, 0, 0)" stroke="rgb(66, 66, 66)" stroke-width="1px" opacity="0.25"></line><line x1="0" y1="152.18742861066548" x2="263.28125" y2="152.18742861066548" fill="rgb(0, 0, 0)" stroke="rgb(66, 66, 66)" stroke-width="1px" opacity="0.25"></line><line x1="0" y1="139.50514289311002" x2="263.28125" y2="139.50514289311002" fill="rgb(0, 0, 0)" stroke="rgb(66, 66, 66)" stroke-width="1px" opacity="0.25"></line><line x1="0" y1="126.82285717555455" x2="263.28125" y2="126.82285717555455" fill="rgb(0, 0, 0)" stroke="rgb(66, 66, 66)" stroke-width="1px" opacity="0.25"></line><line x1="0" y1="114.14057145799909" x2="263.28125" y2="114.14057145799909" fill="rgb(0, 0, 0)" stroke="rgb(66, 66, 66)" stroke-width="1px" opacity="0.25"></line><line x1="0" y1="101.45828574044367" x2="263.28125" y2="101.45828574044367" fill="rgb(0, 0, 0)" stroke="rgb(66, 66, 66)" stroke-width="1px" opacity="0.25"></line><line x1="0" y1="88.7760000228882" x2="263.28125" y2="88.7760000228882" fill="rgb(0, 0, 0)" stroke="rgb(66, 66, 66)" stroke-width="1px" opacity="0.25"></line><line x1="0" y1="76.09371430533274" x2="263.28125" y2="76.09371430533274" fill="rgb(0, 0, 0)" stroke="rgb(66, 66, 66)" stroke-width="1px" opacity="0.25"></line><line x1="0" y1="63.41142858777729" x2="263.28125" y2="63.41142858777729" fill="rgb(0, 0, 0)" stroke="rgb(66, 66, 66)" stroke-width="1px" opacity="0.25"></line><line x1="0" y1="50.72914287022186" x2="263.28125" y2="50.72914287022186" fill="rgb(0, 0, 0)" stroke="rgb(66, 66, 66)" stroke-width="1px" opacity="0.25"></line><line x1="0" y1="38.046857152666384" x2="263.28125" y2="38.046857152666384" fill="rgb(0, 0, 0)" stroke="rgb(66, 66, 66)" stroke-width="1px" opacity="0.25"></line><line x1="0" y1="25.36457143511094" x2="263.28125" y2="25.36457143511094" fill="rgb(0, 0, 0)" stroke="rgb(66, 66, 66)" stroke-width="1px" opacity="0.25"></line><line x1="0" y1="12.68228571755547" x2="263.28125" y2="12.68228571755547" fill="rgb(0, 0, 0)" stroke="rgb(66, 66, 66)" stroke-width="1px" opacity="0.25"></line><line x1="0" y1="0" x2="263.28125" y2="0" fill="rgb(0, 0, 0)" stroke="rgb(66, 66, 66)" stroke-width="1px" opacity="0.25"></line></g></g></g><g><g><line x1="0" y1="431.19771439688543" x2="263.28125" y2="431.19771439688543" fill="rgb(0, 0, 0)" stroke="rgb(153, 153, 153)" stroke-width="1.5px"></line></g></g><g><g><line x1="29.25347222222222" y1="0" x2="29.25347222222222" y2="177.55200004577637" fill="rgb(0, 0, 0)" stroke="rgb(153, 153, 153)" stroke-width="1.5px"></line></g></g><g><g><g><g><g><path stroke="rgb(255, 112, 67)" stroke-width="2px" d="M38.029513888888886,-6.4128563517729855L39.4921875,4.239743010895563L40.954861111111114,12.921922314180115L42.41753472222222,20.30806853015213L43.88020833333333,25.76236577622042L45.34288194444444,30.192322427631012L46.80555555555556,35.19411005555603L48.268229166666664,38.72315068505907L49.73090277777778,42.34320340345215L51.19357638888889,45.60329378027005L52.65625,49.48562170062589L54.11892361111111,52.289063381440045L55.58159722222222,55.066940857461994L57.044270833333336,58.43811460711794L58.50694444444444,59.779865067555626L59.96961805555556,62.26613893240083L61.432291666666664,64.28130651778093L62.89496527777778,66.75092358252473L64.35763888888889,68.74345559758099L65.8203125,71.19880427622009L67.2829861111111,72.59321518439482L68.74565972222223,73.93747296191671L70.20833333333333,75.51579655832782L71.67100694444444,77.92426410943241L73.13368055555556,78.82823554934458L74.59635416666667,80.3220138211115L76.05902777777777,82.11961515034317L77.52170138888889,82.9377509163906L78.984375,83.46507730579633L80.44704861111111,85.05797219798919L81.90972222222223,87.18560731740273L83.37239583333333,88.27145007484265L84.83506944444444,89.10914904436396L86.29774305555556,90.56845529694866L87.76041666666666,91.82885116853929L89.22309027777779,93.6338753471159L90.68576388888889,93.88014908614436L92.1484375,94.8501214747054L93.61111111111111,96.98238986958711L95.07378472222221,97.06245050529033L96.53645833333333,98.041330635349L97.99913194444444,98.94053370084605L99.46180555555556,99.59800789633158L100.92447916666667,100.28089598775193L102.38715277777779,101.71312827134582L103.84982638888889,102.92614517834991L105.3125,103.25628305923328L106.77517361111111,104.80520987928969L108.23784722222221,106.53320821263222L109.70052083333334,106.7086800453464L111.16319444444444,107.92717334993158L112.62586805555556,108.31882204885012L114.08854166666667,108.94993388909027L115.55121527777777,109.96177166026257L117.01388888888889,110.31745428822003L118.4765625,110.81110346926744L119.93923611111111,112.47134682620758L121.40190972222223,113.35838478485411L122.86458333333333,114.74869370689045L124.32725694444444,114.80284197696649L125.78993055555556,115.68318377641863L127.25260416666667,116.9412326430627L128.71527777777777,117.2257454864466L130.17795138888889,118.8446601838075L131.640625,119.8593800921024L133.10329861111111,121.53491407114662L134.5659722222222,122.20243130755972L136.02864583333334,123.02740193882504L137.49131944444446,122.95736957022764L138.95399305555557,123.72107916977036L140.41666666666666,123.62190610772586L141.87934027777777,124.18035053539354L143.34201388888889,125.57356784559518L144.8046875,126.65675124017963L146.26736111111111,127.25473880658573L147.73003472222223,127.354145771647L149.19270833333334,128.37356665728618L150.65538194444443,128.23621275022128L152.11805555555554,128.73277138422134L153.58072916666669,129.4983111669767L155.04340277777777,130.71831103847688L156.50607638888889,131.4371578988257L157.96875,132.42946492073614L159.43142361111111,132.4142616705164L160.89409722222223,133.88539785264487L162.35677083333334,134.15798344859382L163.81944444444446,135.9116569170762L165.28211805555554,136.52377199792923L166.74479166666666,137.30689326115714L168.20746527777777,137.37288573703051L169.67013888888889,138.26203488701512L171.1328125,138.5721774376911L172.59548611111111,140.99097643810944L174.05815972222223,141.1893037928352L175.52083333333331,141.9751094522123L176.98350694444446,142.66650033688853L178.44618055555557,143.43983141453194L179.90885416666666,143.3134446435385L181.37152777777777,143.61830492083556L182.83420138888889,144.68003842604324L184.296875,144.72566316631668L185.75954861111111,145.6334900330899L187.22222222222223,147.07613779634144L188.68489583333334,147.39384281498576L190.14756944444443,147.76989377122098L191.61024305555554,148.05438241007153L193.07291666666666,148.76734650341004L194.5355902777778,149.10323305329837L195.99826388888889,149.76547178697845L197.4609375,151.11615693810108L198.92361111111111,151.40105026522886L200.3862847222222,151.04145105815033L201.84895833333334,151.89888505789344L203.31163194444446,152.4454060477082L204.77430555555557,153.26584036029422L206.23697916666666,153.97492805012004L207.69965277777777,155.28583122835582L209.16232638888889,156.51379445005932L210.625,155.74646487590755L212.08767361111111,156.32006604084995L213.55034722222223,156.31823127182497L215.01302083333334,157.2201939837989L216.47569444444443,158.07605296310078L217.93836805555554,158.78879189294665L219.40104166666669,159.25466606341365L220.86371527777777,160.35322383357328L222.32638888888889,161.16188009179876L223.7890625,161.2260152114247L225.25173611111111,162.60158257366612L226.71440972222223,162.38659322532078L228.17708333333334,163.59957106004015L229.63975694444446,164.05672782945425L231.10243055555554,164.4420575506149L232.56510416666666,165.08495946982327L234.02777777777777,165.74671650510362L235.49045138888889,166.11404404898263L236.953125,166.53295543963566L238.41579861111111,167.70444026123124L239.87847222222223,168.381828197417L241.34114583333331,168.8859734733838L242.80381944444446,168.33287848750066L244.26649305555557,168.63253858114086L245.72916666666666,168.74138180205335L247.19184027777777,169.41166246868852" style="fill: none;" fill="none"></path></g></g></g></g><g opacity="0.2"><g><g><g><path stroke="rgb(255, 112, 67)" stroke-width="2px" d="M35.104166666666664,-9.033304898479228L36.56684027777778,5.296304767509593L38.029513888888886,11.110298580615915L39.4921875,19.771335146620004L40.954861111111114,25.72645036001682L42.41753472222222,31.2756348498462L43.88020833333333,33.894341570737296L45.34288194444444,36.81314977627693L46.80555555555556,42.68045979300823L48.268229166666664,44.00979787133892L49.73090277777778,47.76902724496275L51.19357638888889,50.491130077181516L52.65625,55.30747071009557L54.11892361111111,56.493514109122245L55.58159722222222,59.23333388982073L57.044270833333336,63.49456709296806L58.50694444444444,61.79241717342805L59.96961805555556,65.99546791776795L61.432291666666664,67.30401810988242L62.89496527777778,70.455319924672L64.35763888888889,71.73223945810065L65.8203125,74.8818168232382L67.2829861111111,74.68482797874164L68.74565972222223,75.95385756444732L70.20833333333333,77.88328049908526L71.67100694444444,81.53696410496589L73.13368055555556,80.18419240944603L74.59635416666667,82.56268093155003L76.05902777777777,84.81601692959326L77.52170138888889,84.16495450686035L78.984375,84.25606686724208L80.44704861111111,87.44731449520394L81.90972222222223,90.37705996360505L83.37239583333333,89.90021420092278L84.83506944444444,90.36569749398006L86.29774305555556,92.75741467094893L87.76041666666666,93.71944497339794L89.22309027777779,96.34141161280931L90.68576388888889,94.24955969450927L92.1484375,96.30508005712689L93.61111111111111,100.18079246135542L95.07378472222221,97.18254145883269L96.53645833333333,99.5096508303455L97.99913194444444,100.2893382990412L99.46180555555556,100.58421918953773L100.92447916666667,101.30522812486859L102.38715277777779,103.86147669671917L103.84982638888889,104.74567053884726L105.3125,103.75148988055703L106.77517361111111,107.12860010937018L108.23784722222221,109.12520571264321L109.70052083333334,106.97188779441753L111.16319444444444,109.75491330680858L112.62586805555556,108.90629509722775L114.08854166666667,109.8966016494504L115.55121527777777,111.47952831702088L117.01388888888889,110.8509782301562L118.4765625,111.55157724083841L119.93923611111111,114.96171186161779L121.40190972222223,114.68894172282394L122.86458333333333,116.83415708994491L124.32725694444444,114.88406438208064L125.78993055555556,117.00369647559687L127.25260416666667,118.82830594302875L128.71527777777777,117.65251475152236L130.17795138888889,121.27303222984895L131.640625,121.38145995454485L133.10329861111111,124.04821503971296L134.5659722222222,123.20370716217943L136.02864583333334,124.26485788572302L137.49131944444446,122.85232101733156L138.95399305555557,124.86664356908432L140.41666666666666,123.47314651465906L141.87934027777777,125.01801717689509L143.34201388888889,127.66339381089766L144.8046875,128.28152633205625L146.26736111111111,128.15172015619478L147.73003472222223,127.5032562192389L149.19270833333334,129.90269798574494L150.65538194444443,128.0301818896239L152.11805555555554,129.47760933522142L153.58072916666669,130.64662084110958L155.04340277777777,132.54831084572723L156.50607638888889,132.51542818934885L157.96875,133.9179254536018L159.43142361111111,132.39145679518674L160.89409722222223,136.09210212583764L162.35677083333334,134.56686184251714L163.81944444444446,138.5421671197997L165.28211805555554,137.4419446192088L166.74479166666666,138.48157515599905L168.20746527777777,137.47187445084057L169.67013888888889,139.59575861199195L171.1328125,139.03739126370496L172.59548611111111,144.61917493873705L174.05815972222223,141.4867948249238L175.52083333333331,143.15381794127802L176.98350694444446,143.70358666390285L178.44618055555557,144.59982803099717L179.90885416666666,143.1238644870483L181.37152777777777,144.07559533678113L182.83420138888889,146.27263868385478L184.296875,144.79410027672685L185.75954861111111,146.99523033324982L187.22222222222223,149.24010944121872L188.68489583333334,147.87040034295225L190.14756944444443,148.33397020557373L191.61024305555554,148.48111536834733L193.07291666666666,149.83679264341785L194.5355902777778,149.60706287813076L195.99826388888889,150.75882988749865L197.4609375,153.1421846647851L198.92361111111111,151.82839025592065L200.3862847222222,150.50205224753253L201.84895833333334,153.18503605750806L203.31163194444446,153.26518753243033L204.77430555555557,154.49649182917318L206.23697916666666,155.03855958485883L207.69965277777777,157.2521859957095L209.16232638888889,158.3557392826146L210.625,154.5954705146799L212.08767361111111,157.18046778826357L213.55034722222223,156.3154791182875L215.01302083333334,158.57313805175977L216.47569444444443,159.35984143205343L217.93836805555554,159.85790028771544L219.40104166666669,159.95347731911409L220.86371527777777,162.00106048881278L222.32638888888889,162.374864479137L223.7890625,161.32221789086367L225.25173611111111,164.66493361702817L226.71440972222223,162.06410920280263L228.17708333333334,165.41903781211917L229.63975694444446,164.74246298357545L231.10243055555554,165.02005213235577L232.56510416666666,166.04931234863585L234.02777777777777,166.73935205802417L235.49045138888889,166.6650353648012L236.953125,167.16132252561525L238.41579861111111,169.46166749362467L239.87847222222223,169.39791010169563L241.34114583333331,169.64219138733407L242.80381944444446,167.50323600867594L244.26649305555557,169.08202872160115L245.72916666666666,168.90464663342215L247.19184027777777,170.41708346864127" style="fill: none;" fill="none"></path></g></g></g></g></g></g><g transform="translate(66, 177)" clip-path="url(#clip_1)"><clipPath id="clip_1"><rect width="263" height="22"></rect></clipPath><g><g><line x1="0" y1="0" x2="0" y2="5" style="visibility: inherit;" fill="rgb(0, 0, 0)" stroke="rgb(204, 204, 204)" stroke-width="1px"></line><line x1="29.25347222222222" y1="0" x2="29.25347222222222" y2="5" style="visibility: inherit;" fill="rgb(0, 0, 0)" stroke="rgb(204, 204, 204)" stroke-width="1px"></line><line x1="58.50694444444444" y1="0" x2="58.50694444444444" y2="5" style="visibility: inherit;" fill="rgb(0, 0, 0)" stroke="rgb(204, 204, 204)" stroke-width="1px"></line><line x1="87.76041666666666" y1="0" x2="87.76041666666666" y2="5" style="visibility: inherit;" fill="rgb(0, 0, 0)" stroke="rgb(204, 204, 204)" stroke-width="1px"></line><line x1="117.01388888888889" y1="0" x2="117.01388888888889" y2="5" style="visibility: inherit;" fill="rgb(0, 0, 0)" stroke="rgb(204, 204, 204)" stroke-width="1px"></line><line x1="146.26736111111111" y1="0" x2="146.26736111111111" y2="5" style="visibility: inherit;" fill="rgb(0, 0, 0)" stroke="rgb(204, 204, 204)" stroke-width="1px"></line><line x1="175.52083333333331" y1="0" x2="175.52083333333331" y2="5" style="visibility: inherit;" fill="rgb(0, 0, 0)" stroke="rgb(204, 204, 204)" stroke-width="1px"></line><line x1="204.77430555555557" y1="0" x2="204.77430555555557" y2="5" style="visibility: inherit;" fill="rgb(0, 0, 0)" stroke="rgb(204, 204, 204)" stroke-width="1px"></line><line x1="234.02777777777777" y1="0" x2="234.02777777777777" y2="5" style="visibility: inherit;" fill="rgb(0, 0, 0)" stroke="rgb(204, 204, 204)" stroke-width="1px"></line><line x1="263.28125" y1="0" x2="263.28125" y2="5" style="visibility: inherit;" fill="rgb(0, 0, 0)" stroke="rgb(204, 204, 204)" stroke-width="1px"></line></g><g transform="translate(0, 8)"><text x="0" y="0" dx="0em" dy="0.95em" style="text-anchor: middle; visibility: hidden; font-family: Roboto, sans-serif; font-size: 12px; font-weight: 200;" fill="rgb(33, 33, 33)" stroke="none" stroke-width="1px">-20</text><text x="29.25347222222222" y="0" dx="0em" dy="0.95em" style="text-anchor: middle; visibility: inherit; font-family: Roboto, sans-serif; font-size: 12px; font-weight: 200;" fill="rgb(33, 33, 33)" stroke="none" stroke-width="1px">0</text><text x="58.50694444444444" y="0" dx="0em" dy="0.95em" style="text-anchor: middle; visibility: inherit; font-family: Roboto, sans-serif; font-size: 12px; font-weight: 200;" fill="rgb(33, 33, 33)" stroke="none" stroke-width="1px">20</text><text x="87.76041666666666" y="0" dx="0em" dy="0.95em" style="text-anchor: middle; visibility: inherit; font-family: Roboto, sans-serif; font-size: 12px; font-weight: 200;" fill="rgb(33, 33, 33)" stroke="none" stroke-width="1px">40</text><text x="117.01388888888889" y="0" dx="0em" dy="0.95em" style="text-anchor: middle; visibility: inherit; font-family: Roboto, sans-serif; font-size: 12px; font-weight: 200;" fill="rgb(33, 33, 33)" stroke="none" stroke-width="1px">60</text><text x="146.26736111111111" y="0" dx="0em" dy="0.95em" style="text-anchor: middle; visibility: inherit; font-family: Roboto, sans-serif; font-size: 12px; font-weight: 200;" fill="rgb(33, 33, 33)" stroke="none" stroke-width="1px">80</text><text x="175.52083333333331" y="0" dx="0em" dy="0.95em" style="text-anchor: middle; visibility: inherit; font-family: Roboto, sans-serif; font-size: 12px; font-weight: 200;" fill="rgb(33, 33, 33)" stroke="none" stroke-width="1px">100</text><text x="204.77430555555557" y="0" dx="0em" dy="0.95em" style="text-anchor: middle; visibility: inherit; font-family: Roboto, sans-serif; font-size: 12px; font-weight: 200;" fill="rgb(33, 33, 33)" stroke="none" stroke-width="1px">120</text><text x="234.02777777777777" y="0" dx="0em" dy="0.95em" style="text-anchor: middle; visibility: inherit; font-family: Roboto, sans-serif; font-size: 12px; font-weight: 200;" fill="rgb(33, 33, 33)" stroke="none" stroke-width="1px">140</text><text x="263.28125" y="0" dx="0em" dy="0.95em" style="text-anchor: middle; visibility: hidden; font-family: Roboto, sans-serif; font-size: 12px; font-weight: 200;" fill="rgb(33, 33, 33)" stroke="none" stroke-width="1px">160</text></g><line x1="0" y1="0" x2="263.28125" y2="0" fill="rgb(0, 0, 0)" stroke="rgb(204, 204, 204)" stroke-width="1px"></line></g></g></g></g></svg>