<svg viewBox="0 0 330 200" xmlns="http://www.w3.org/2000/svg"><g><g><g><g><g><line x1="66.71875" y1="177.55200004577637" x2="61.71875" y2="177.55200004577637" style="visibility: inherit;" fill="rgb(0, 0, 0)" stroke="rgb(204, 204, 204)" stroke-width="1px"></line><line x1="66.71875" y1="159.79680004119874" x2="61.71875" y2="159.79680004119874" style="visibility: inherit;" fill="rgb(0, 0, 0)" stroke="rgb(204, 204, 204)" stroke-width="1px"></line><line x1="66.71875" y1="142.04160003662108" x2="61.71875" y2="142.04160003662108" style="visibility: inherit;" fill="rgb(0, 0, 0)" stroke="rgb(204, 204, 204)" stroke-width="1px"></line><line x1="66.71875" y1="124.28640003204345" x2="61.71875" y2="124.28640003204345" style="visibility: inherit;" fill="rgb(0, 0, 0)" stroke="rgb(204, 204, 204)" stroke-width="1px"></line><line x1="66.71875" y1="106.5312000274658" x2="61.71875" y2="106.5312000274658" style="visibility: inherit;" fill="rgb(0, 0, 0)" stroke="rgb(204, 204, 204)" stroke-width="1px"></line><line x1="66.71875" y1="88.77600002288817" x2="61.71875" y2="88.77600002288817" style="visibility: inherit;" fill="rgb(0, 0, 0)" stroke="rgb(204, 204, 204)" stroke-width="1px"></line><line x1="66.71875" y1="71.02080001831052" x2="61.71875" y2="71.02080001831052" style="visibility: inherit;" fill="rgb(0, 0, 0)" stroke="rgb(204, 204, 204)" stroke-width="1px"></line><line x1="66.71875" y1="53.2656000137329" x2="61.71875" y2="53.2656000137329" style="visibility: inherit;" fill="rgb(0, 0, 0)" stroke="rgb(204, 204, 204)" stroke-width="1px"></line><line x1="66.71875" y1="35.51040000915525" x2="61.71875" y2="35.51040000915525" style="visibility: inherit;" fill="rgb(0, 0, 0)" stroke="rgb(204, 204, 204)" stroke-width="1px"></line><line x1="66.71875" y1="17.755200004577592" x2="61.71875" y2="17.755200004577592" style="visibility: inherit;" fill="rgb(0, 0, 0)" stroke="rgb(204, 204, 204)" stroke-width="1px"></line><line x1="66.71875" y1="0" x2="61.71875" y2="0" style="visibility: inherit;" fill="rgb(0, 0, 0)" stroke="rgb(204, 204, 204)" stroke-width="1px"></line></g><g transform="translate(56.71875, 0)"><text x="0" y="177.55200004577637" dx="0em" dy="0.3em" style="text-anchor: end; visibility: hidden; font-family: Roboto, sans-serif; font-size: 12px; font-weight: 200;" fill="rgb(33, 33, 33)" stroke="none" stroke-width="1px">1e-3</text><text x="0" y="159.79680004119874" dx="0em" dy="0.3em" style="text-anchor: end; visibility: inherit; font-family: Roboto, sans-serif; font-size: 12px; font-weight: 200;" fill="rgb(33, 33, 33)" stroke="none" stroke-width="1px">2e-3</text><text x="0" y="142.04160003662108" dx="0em" dy="0.3em" style="text-anchor: end; visibility: hidden; font-family: Roboto, sans-serif; font-size: 12px; font-weight: 200;" fill="rgb(33, 33, 33)" stroke="none" stroke-width="1px">3e-3</text><text x="0" y="124.28640003204345" dx="0em" dy="0.3em" style="text-anchor: end; visibility: inherit; font-family: Roboto, sans-serif; font-size: 12px; font-weight: 200;" fill="rgb(33, 33, 33)" stroke="none" stroke-width="1px">4e-3</text><text x="0" y="106.5312000274658" dx="0em" dy="0.3em" style="text-anchor: end; visibility: hidden; font-family: Roboto, sans-serif; font-size: 12px; font-weight: 200;" fill="rgb(33, 33, 33)" stroke="none" stroke-width="1px">5e-3</text><text x="0" y="88.77600002288817" dx="0em" dy="0.3em" style="text-anchor: end; visibility: inherit; font-family: Roboto, sans-serif; font-size: 12px; font-weight: 200;" fill="rgb(33, 33, 33)" stroke="none" stroke-width="1px">6e-3</text><text x="0" y="71.02080001831052" dx="0em" dy="0.3em" style="text-anchor: end; visibility: hidden; font-family: Roboto, sans-serif; font-size: 12px; font-weight: 200;" fill="rgb(33, 33, 33)" stroke="none" stroke-width="1px">7e-3</text><text x="0" y="53.2656000137329" dx="0em" dy="0.3em" style="text-anchor: end; visibility: inherit; font-family: Roboto, sans-serif; font-size: 12px; font-weight: 200;" fill="rgb(33, 33, 33)" stroke="none" stroke-width="1px">8e-3</text><text x="0" y="35.51040000915525" dx="0em" dy="0.3em" style="text-anchor: end; visibility: hidden; font-family: Roboto, sans-serif; font-size: 12px; font-weight: 200;" fill="rgb(33, 33, 33)" stroke="none" stroke-width="1px">9e-3</text><text x="0" y="17.755200004577592" dx="0em" dy="0.3em" style="text-anchor: end; visibility: inherit; font-family: Roboto, sans-serif; font-size: 12px; font-weight: 200;" fill="rgb(33, 33, 33)" stroke="none" stroke-width="1px">0.01</text><text x="0" y="0" dx="0em" dy="0.3em" style="text-anchor: end; visibility: hidden; font-family: Roboto, sans-serif; font-size: 12px; font-weight: 200;" fill="rgb(33, 33, 33)" stroke="none" stroke-width="1px">0.011</text></g><line x1="66.71875" y1="0" x2="66.71875" y2="177.55200004577637" fill="rgb(0, 0, 0)" stroke="rgb(204, 204, 204)" stroke-width="1px"></line></g></g><g transform="translate(66, 0)" clip-path="url(#clip_0)"><clipPath id="clip_0"><rect width="263" height="177"></rect></clipPath><g><g><g><line x1="0" y1="0" x2="0" y2="177.55200004577637" fill="rgb(0, 0, 0)" stroke="rgb(66, 66, 66)" stroke-width="1px" opacity="0.25"></line><line x1="29.25347222222222" y1="0" x2="29.25347222222222" y2="177.55200004577637" fill="rgb(0, 0, 0)" stroke="rgb(66, 66, 66)" stroke-width="1px" opacity="0.25"></line><line x1="58.50694444444444" y1="0" x2="58.50694444444444" y2="177.55200004577637" fill="rgb(0, 0, 0)" stroke="rgb(66, 66, 66)" stroke-width="1px" opacity="0.25"></line><line x1="87.76041666666666" y1="0" x2="87.76041666666666" y2="177.55200004577637" fill="rgb(0, 0, 0)" stroke="rgb(66, 66, 66)" stroke-width="1px" opacity="0.25"></line><line x1="117.01388888888889" y1="0" x2="117.01388888888889" y2="177.55200004577637" fill="rgb(0, 0, 0)" stroke="rgb(66, 66, 66)" stroke-width="1px" opacity="0.25"></line><line x1="146.26736111111111" y1="0" x2="146.26736111111111" y2="177.55200004577637" fill="rgb(0, 0, 0)" stroke="rgb(66, 66, 66)" stroke-width="1px" opacity="0.25"></line><line x1="175.52083333333331" y1="0" x2="175.52083333333331" y2="177.55200004577637" fill="rgb(0, 0, 0)" stroke="rgb(66, 66, 66)" stroke-width="1px" opacity="0.25"></line><line x1="204.77430555555557" y1="0" x2="204.77430555555557" y2="177.55200004577637" fill="rgb(0, 0, 0)" stroke="rgb(66, 66, 66)" stroke-width="1px" opacity="0.25"></line><line x1="234.02777777777777" y1="0" x2="234.02777777777777" y2="177.55200004577637" fill="rgb(0, 0, 0)" stroke="rgb(66, 66, 66)" stroke-width="1px" opacity="0.25"></line><line x1="263.28125" y1="0" x2="263.28125" y2="177.55200004577637" fill="rgb(0, 0, 0)" stroke="rgb(66, 66, 66)" stroke-width="1px" opacity="0.25"></line></g><g><line x1="0" y1="177.55200004577637" x2="263.28125" y2="177.55200004577637" fill="rgb(0, 0, 0)" stroke="rgb(66, 66, 66)" stroke-width="1px" opacity="0.25"></line><line x1="0" y1="159.79680004119874" x2="263.28125" y2="159.79680004119874" fill="rgb(0, 0, 0)" stroke="rgb(66, 66, 66)" stroke-width="1px" opacity="0.25"></line><line x1="0" y1="142.04160003662108" x2="263.28125" y2="142.04160003662108" fill="rgb(0, 0, 0)" stroke="rgb(66, 66, 66)" stroke-width="1px" opacity="0.25"></line><line x1="0" y1="124.28640003204345" x2="263.28125" y2="124.28640003204345" fill="rgb(0, 0, 0)" stroke="rgb(66, 66, 66)" stroke-width="1px" opacity="0.25"></line><line x1="0" y1="106.5312000274658" x2="263.28125" y2="106.5312000274658" fill="rgb(0, 0, 0)" stroke="rgb(66, 66, 66)" stroke-width="1px" opacity="0.25"></line><line x1="0" y1="88.77600002288817" x2="263.28125" y2="88.77600002288817" fill="rgb(0, 0, 0)" stroke="rgb(66, 66, 66)" stroke-width="1px" opacity="0.25"></line><line x1="0" y1="71.02080001831052" x2="263.28125" y2="71.02080001831052" fill="rgb(0, 0, 0)" stroke="rgb(66, 66, 66)" stroke-width="1px" opacity="0.25"></line><line x1="0" y1="53.2656000137329" x2="263.28125" y2="53.2656000137329" fill="rgb(0, 0, 0)" stroke="rgb(66, 66, 66)" stroke-width="1px" opacity="0.25"></line><line x1="0" y1="35.51040000915525" x2="263.28125" y2="35.51040000915525" fill="rgb(0, 0, 0)" stroke="rgb(66, 66, 66)" stroke-width="1px" opacity="0.25"></line><line x1="0" y1="17.755200004577592" x2="263.28125" y2="17.755200004577592" fill="rgb(0, 0, 0)" stroke="rgb(66, 66, 66)" stroke-width="1px" opacity="0.25"></line><line x1="0" y1="0" x2="263.28125" y2="0" fill="rgb(0, 0, 0)" stroke="rgb(66, 66, 66)" stroke-width="1px" opacity="0.25"></line></g></g></g><g><g><line x1="0" y1="195.30720005035403" x2="263.28125" y2="195.30720005035403" fill="rgb(0, 0, 0)" stroke="rgb(153, 153, 153)" stroke-width="1.5px"></line></g></g><g><g><line x1="29.25347222222222" y1="0" x2="29.25347222222222" y2="177.55200004577637" fill="rgb(0, 0, 0)" stroke="rgb(153, 153, 153)" stroke-width="1.5px"></line></g></g><g><g><g><g><g><path stroke="rgb(255, 112, 67)" stroke-width="2px" d="M38.029513888888886,-2.7080430885720865L39.4921875,6.0655089434887195L40.954861111111114,12.77489264109937L42.41753472222222,16.68331989073289L43.88020833333333,21.69558572836446L45.34288194444444,25.28436998425586L46.80555555555556,28.791762022754476L48.268229166666664,33.18730234886759L49.73090277777778,37.03474242460273L51.19357638888889,39.981066852728496L52.65625,42.4680834982594L54.11892361111111,44.26821023828324L55.58159722222222,46.273040889414695L57.044270833333336,49.45632266182685L58.50694444444444,52.09883621455434L59.96961805555556,54.13214610057647L61.432291666666664,56.006382883139175L62.89496527777778,58.07777747409097L64.35763888888889,60.618177320091526L65.8203125,63.411284194283326L67.2829861111111,66.1317106912016L68.74565972222223,67.72961658393041L70.20833333333333,69.17273348223308L71.67100694444444,71.52982688036816L73.13368055555556,72.9804382413051L74.59635416666667,75.5803028735796L76.05902777777777,77.6261001154159L77.52170138888889,79.20218322814601L78.984375,80.26478429939084L80.44704861111111,82.06858976968964L81.90972222222223,83.85283177172728L83.37239583333333,86.23655246755659L84.83506944444444,87.49085038362225L86.29774305555556,88.49747883416498L87.76041666666666,90.04405047812624L89.22309027777779,91.83488869946807L90.68576388888889,93.00872229396683L92.1484375,94.84236263794915L93.61111111111111,96.92620977700624L95.07378472222221,97.46497517238633L96.53645833333333,98.28957727884384L97.99913194444444,99.79774941311747L99.46180555555556,100.68859394070218L100.92447916666667,102.63759111450055L102.38715277777779,103.68808034735241L103.84982638888889,104.70034798912053L105.3125,105.7120093384875L106.77517361111111,106.71900759958322L108.23784722222221,108.02796645132959L109.70052083333334,108.5906836580189L111.16319444444444,109.62758398535274L112.62586805555556,111.32450278206728L114.08854166666667,111.93285348252842L115.55121527777777,113.37617124680455L117.01388888888889,114.20165576417396L118.4765625,115.31189703180723L119.93923611111111,117.01568425133203L121.40190972222223,117.4702521666851L122.86458333333333,118.62373691381707L124.32725694444444,119.80110773715879L125.78993055555556,119.93018212540557L127.25260416666667,121.38877108384689L128.71527777777777,122.3836305567838L130.17795138888889,122.62180827075689L131.640625,123.65703727723138L133.10329861111111,124.73563644857967L134.5659722222222,125.41243971335894L136.02864583333334,126.68405933137949L137.49131944444446,126.43514979501447L138.95399305555557,127.37092417445025L140.41666666666666,128.3148308678367L141.87934027777777,128.79245856359924L143.34201388888889,129.6995070480926L144.8046875,129.9047799687682L146.26736111111111,130.4991748647696L147.73003472222223,131.55154148693248L149.19270833333334,132.3200681999952L150.65538194444443,132.39601375204197L152.11805555555554,133.1003251024118L153.58072916666669,134.18030495539736L155.04340277777777,135.3075885295068L156.50607638888889,135.66954496589L157.96875,136.03925679338477L159.43142361111111,136.86320761261993L160.89409722222223,137.65439604769136L162.35677083333334,137.8892686352887L163.81944444444446,138.54732676382423L165.28211805555554,138.7947233217311L166.74479166666666,139.5190889354174L168.20746527777777,140.23646253345626L169.67013888888889,140.6454843822901L171.1328125,140.93302579658945L172.59548611111111,142.39103029942515L174.05815972222223,142.50336971351686L175.52083333333331,142.9902986544468L176.98350694444446,143.55149378731886L178.44618055555557,143.76295865561792L179.90885416666666,143.82147519541945L181.37152777777777,144.03705208254866L182.83420138888889,144.34299248936279L184.296875,145.13686237922346L185.75954861111111,145.48528471716082L187.22222222222223,146.10889439891454L188.68489583333334,146.96765229297634L190.14756944444443,147.44039343984147L191.61024305555554,147.77320573092953L193.07291666666666,147.95936349881933L194.5355902777778,148.56675073957626L195.99826388888889,148.7208325894424L197.4609375,149.33467424862388L198.92361111111111,150.0951642141657L200.3862847222222,150.19232667121955L201.84895833333334,150.42351935737187L203.31163194444446,151.28019375454386L204.77430555555557,152.00325082567645L206.23697916666666,151.96826815427278L207.69965277777777,152.39338847943824L209.16232638888889,152.85827210143984L210.625,153.30442239362375L212.08767361111111,153.84821278536418L213.55034722222223,153.9411533915746L215.01302083333334,154.19876387839264L216.47569444444443,154.8991676203536L217.93836805555554,155.00616854698515L219.40104166666669,155.40347159320683L220.86371527777777,155.6421990195482L222.32638888888889,155.97080696239246L223.7890625,156.47350570160341L225.25173611111111,156.48229544104143L226.71440972222223,156.7720812720465L228.17708333333334,157.26192415284234L229.63975694444446,157.47889698537136L231.10243055555554,157.4194644532196L232.56510416666666,158.26000488890259L234.02777777777777,158.47237108386304L235.49045138888889,158.56255544455846L236.953125,159.29816502006688L238.41579861111111,159.59188078767963L239.87847222222223,159.88763279853316L241.34114583333331,160.36895364840953L242.80381944444446,160.29971509479066L244.26649305555557,160.0998067744865L245.72916666666666,160.04578678382305L247.19184027777777,160.02418260044956" style="fill: none;" fill="none"></path></g></g></g></g><g opacity="0.2"><g><g><g><path stroke="rgb(255, 112, 67)" stroke-width="2px" d="M35.104166666666664,-3.3300151592018814L36.56684027777778,6.2788167317127535L38.029513888888886,10.973666343251852L39.4921875,18.857432032332873L40.954861111111114,22.669930364385756L42.41753472222222,22.486878852693245L43.88020833333333,29.168523602567205L45.34288194444444,30.648016362653237L46.80555555555556,34.04139783695017L48.268229166666664,39.7720015169521L49.73090277777778,42.801380016823806L51.19357638888889,44.39847551865845L52.65625,46.19755604446094L54.11892361111111,46.96794329633469L55.58159722222222,49.279981450340735L57.044270833333336,54.23095435588212L58.50694444444444,56.0624616219221L59.96961805555556,57.18204402268172L61.432291666666664,58.817701053447436L62.89496527777778,61.184844822874915L64.35763888888889,64.4287590330175L65.8203125,67.60093259424609L67.2829861111111,70.21234347575323L68.74565972222223,70.1264729698617L70.20833333333333,71.33740750037248L71.67100694444444,75.06546567484109L73.13368055555556,75.15635480167198L74.59635416666667,79.48009930470528L76.05902777777777,80.69479573394325L77.52170138888889,81.56630778434956L78.984375,81.85868586059087L80.44704861111111,84.77429792862479L81.90972222222223,86.52919474717864L83.37239583333333,89.81213348917254L84.83506944444444,89.3722972507345L86.29774305555556,90.00742150661505L87.76041666666666,92.36390794096702L89.22309027777779,94.52114602932633L90.68576388888889,94.76947268486764L92.1484375,97.59282315312842L93.61111111111111,100.05198048505031L95.07378472222221,98.27312326537248L96.53645833333333,99.526480438453L97.99913194444444,102.06000761444326L99.46180555555556,102.02486073204919L100.92447916666667,105.56108687515875L102.38715277777779,105.26381419661746L103.84982638888889,106.2187494517653L105.3125,107.22950136253357L106.77517361111111,108.22950499122415L108.23784722222221,109.99140472894709L109.70052083333334,109.43475946805232L111.16319444444444,111.18293447635297L112.62586805555556,113.86988097713846L114.08854166666667,112.84537953322003L115.55121527777777,115.54114789321852L117.01388888888889,115.43988254022801L118.4765625,116.9772589332571L119.93923611111111,119.57136508061916L121.40190972222223,118.1521040397147L122.86458333333333,120.35396403451503L124.32725694444444,121.56716397217141L125.78993055555556,120.12379370777575L127.25260416666667,123.57665452150881L128.71527777777777,123.87591976618913L130.17795138888889,122.9790748417166L131.640625,125.2098807869431L133.10329861111111,126.35353520560213L134.5659722222222,126.42764461052786L136.02864583333334,128.59148875841032L137.49131944444446,126.06178549046692L138.95399305555557,128.77458574360392L140.41666666666666,129.73069090791637L141.87934027777777,129.50890010724305L143.34201388888889,131.0600797748327L144.8046875,130.21268934978153L146.26736111111111,131.3907672087717L147.73003472222223,133.13009142017683L149.19270833333334,133.4728582695893L150.65538194444443,132.50993208011215L152.11805555555554,134.15679212796653L153.58072916666669,135.80027473487576L155.04340277777777,136.9985138906709L156.50607638888889,136.21247962046482L157.96875,136.59382453462695L159.43142361111111,138.09913384147268L160.89409722222223,138.84117870029846L162.35677083333334,138.2415775166847L163.81944444444446,139.53441395662756L165.28211805555554,139.16581815859143L166.74479166666666,140.6056373559468L168.20746527777777,141.3125229305146L169.67013888888889,141.25901715554087L171.1328125,141.3643379180384L172.59548611111111,144.5780370536787L174.05815972222223,142.67187883465445L175.52083333333331,143.72069206584172L176.98350694444446,144.39328648662698L178.44618055555557,144.08015595806646L179.90885416666666,143.90925000512172L181.37152777777777,144.36041741324246L182.83420138888889,144.80190309958397L184.296875,146.3276672140145L185.75954861111111,146.00791822406686L187.22222222222223,147.04430892154508L188.68489583333334,148.25578913406903L190.14756944444443,148.14950516013917L191.61024305555554,148.2724241675616L193.07291666666666,148.238600150654L194.5355902777778,149.47783160071165L195.99826388888889,148.95195536424163L197.4609375,150.25543673739605L198.92361111111111,151.23589916247843L200.3862847222222,150.33807035680033L201.84895833333334,150.77030838660036L203.31163194444446,152.56520535030185L204.77430555555557,153.08783643237533L206.23697916666666,151.91579414716725L207.69965277777777,153.03106896718648L209.16232638888889,153.55559753444217L210.625,153.97364783189963L212.08767361111111,154.66389837297484L213.55034722222223,154.08056430089022L215.01302083333334,154.58517960861963L216.47569444444443,155.94977323329505L217.93836805555554,155.16666993693246L219.40104166666669,155.99942616253938L220.86371527777777,156.00029015906026L222.32638888888889,156.46371887665885L223.7890625,157.22755381041983L225.25173611111111,156.49548005019844L226.71440972222223,157.20676001855412L228.17708333333334,157.99668847403606L229.63975694444446,157.80435623416494L231.10243055555554,157.33031565499192L232.56510416666666,159.52081554242707L234.02777777777777,158.79092037630375L235.49045138888889,158.69783198560157L236.953125,160.4015793833295L238.41579861111111,160.03245443909879L239.87847222222223,160.33126081481348L241.34114583333331,161.090934923224L242.80381944444446,160.19585726436233L244.26649305555557,159.79994429403027L245.72916666666666,159.96475679782787L247.19184027777777,159.99177632538934" style="fill: none;" fill="none"></path></g></g></g></g></g></g><g transform="translate(66, 177)" clip-path="url(#clip_1)"><clipPath id="clip_1"><rect width="263" height="22"></rect></clipPath><g><g><line x1="0" y1="0" x2="0" y2="5" style="visibility: inherit;" fill="rgb(0, 0, 0)" stroke="rgb(204, 204, 204)" stroke-width="1px"></line><line x1="29.25347222222222" y1="0" x2="29.25347222222222" y2="5" style="visibility: inherit;" fill="rgb(0, 0, 0)" stroke="rgb(204, 204, 204)" stroke-width="1px"></line><line x1="58.50694444444444" y1="0" x2="58.50694444444444" y2="5" style="visibility: inherit;" fill="rgb(0, 0, 0)" stroke="rgb(204, 204, 204)" stroke-width="1px"></line><line x1="87.76041666666666" y1="0" x2="87.76041666666666" y2="5" style="visibility: inherit;" fill="rgb(0, 0, 0)" stroke="rgb(204, 204, 204)" stroke-width="1px"></line><line x1="117.01388888888889" y1="0" x2="117.01388888888889" y2="5" style="visibility: inherit;" fill="rgb(0, 0, 0)" stroke="rgb(204, 204, 204)" stroke-width="1px"></line><line x1="146.26736111111111" y1="0" x2="146.26736111111111" y2="5" style="visibility: inherit;" fill="rgb(0, 0, 0)" stroke="rgb(204, 204, 204)" stroke-width="1px"></line><line x1="175.52083333333331" y1="0" x2="175.52083333333331" y2="5" style="visibility: inherit;" fill="rgb(0, 0, 0)" stroke="rgb(204, 204, 204)" stroke-width="1px"></line><line x1="204.77430555555557" y1="0" x2="204.77430555555557" y2="5" style="visibility: inherit;" fill="rgb(0, 0, 0)" stroke="rgb(204, 204, 204)" stroke-width="1px"></line><line x1="234.02777777777777" y1="0" x2="234.02777777777777" y2="5" style="visibility: inherit;" fill="rgb(0, 0, 0)" stroke="rgb(204, 204, 204)" stroke-width="1px"></line><line x1="263.28125" y1="0" x2="263.28125" y2="5" style="visibility: inherit;" fill="rgb(0, 0, 0)" stroke="rgb(204, 204, 204)" stroke-width="1px"></line></g><g transform="translate(0, 8)"><text x="0" y="0" dx="0em" dy="0.95em" style="text-anchor: middle; visibility: hidden; font-family: Roboto, sans-serif; font-size: 12px; font-weight: 200;" fill="rgb(33, 33, 33)" stroke="none" stroke-width="1px">-20</text><text x="29.25347222222222" y="0" dx="0em" dy="0.95em" style="text-anchor: middle; visibility: inherit; font-family: Roboto, sans-serif; font-size: 12px; font-weight: 200;" fill="rgb(33, 33, 33)" stroke="none" stroke-width="1px">0</text><text x="58.50694444444444" y="0" dx="0em" dy="0.95em" style="text-anchor: middle; visibility: inherit; font-family: Roboto, sans-serif; font-size: 12px; font-weight: 200;" fill="rgb(33, 33, 33)" stroke="none" stroke-width="1px">20</text><text x="87.76041666666666" y="0" dx="0em" dy="0.95em" style="text-anchor: middle; visibility: inherit; font-family: Roboto, sans-serif; font-size: 12px; font-weight: 200;" fill="rgb(33, 33, 33)" stroke="none" stroke-width="1px">40</text><text x="117.01388888888889" y="0" dx="0em" dy="0.95em" style="text-anchor: middle; visibility: inherit; font-family: Roboto, sans-serif; font-size: 12px; font-weight: 200;" fill="rgb(33, 33, 33)" stroke="none" stroke-width="1px">60</text><text x="146.26736111111111" y="0" dx="0em" dy="0.95em" style="text-anchor: middle; visibility: inherit; font-family: Roboto, sans-serif; font-size: 12px; font-weight: 200;" fill="rgb(33, 33, 33)" stroke="none" stroke-width="1px">80</text><text x="175.52083333333331" y="0" dx="0em" dy="0.95em" style="text-anchor: middle; visibility: inherit; font-family: Roboto, sans-serif; font-size: 12px; font-weight: 200;" fill="rgb(33, 33, 33)" stroke="none" stroke-width="1px">100</text><text x="204.77430555555557" y="0" dx="0em" dy="0.95em" style="text-anchor: middle; visibility: inherit; font-family: Roboto, sans-serif; font-size: 12px; font-weight: 200;" fill="rgb(33, 33, 33)" stroke="none" stroke-width="1px">120</text><text x="234.02777777777777" y="0" dx="0em" dy="0.95em" style="text-anchor: middle; visibility: inherit; font-family: Roboto, sans-serif; font-size: 12px; font-weight: 200;" fill="rgb(33, 33, 33)" stroke="none" stroke-width="1px">140</text><text x="263.28125" y="0" dx="0em" dy="0.95em" style="text-anchor: middle; visibility: hidden; font-family: Roboto, sans-serif; font-size: 12px; font-weight: 200;" fill="rgb(33, 33, 33)" stroke="none" stroke-width="1px">160</text></g><line x1="0" y1="0" x2="263.28125" y2="0" fill="rgb(0, 0, 0)" stroke="rgb(204, 204, 204)" stroke-width="1px"></line></g></g></g></g></svg>